inDegrees=no
num_controls=7
num_derivatives=13
num_iterations=97
num_multipliers=7
num_parameters=0
num_slacks=7
num_states=26
objective=0.457856
objective_accelerations=0.065575
objective_balance=0.002130
objective_effort=0.021838
objective_height=0.359138
objective_ligament=0.009174
solver_duration=1326.986193
status=Solve_Succeeded
success=true
DataType=double
version=3
OpenSimVersion=4.5
endheader
time	/jointset/ground_pelvis/pelvis_tilt/value	/jointset/ground_pelvis/pelvis_tx/value	/jointset/ground_pelvis/pelvis_ty/value	/jointset/hip_l/hip_flexion_l/value	/jointset/hip_l/hip_adduction_l/value	/jointset/hip_l/hip_rotation_l/value	/jointset/back/lumbar_extension/value	/jointset/patellofemoral_l/patellar_flexion_l/value	/jointset/knee_l/knee_flexion_l/value	/jointset/knee_l/knee_adduction_l/value	/jointset/knee_l/knee_rotation_l/value	/jointset/ankle_l/ankle_angle_l/value	/jointset/subtalar_l/subtalar_angle_l/value	/jointset/ground_pelvis/pelvis_tilt/speed	/jointset/ground_pelvis/pelvis_tx/speed	/jointset/ground_pelvis/pelvis_ty/speed	/jointset/hip_l/hip_flexion_l/speed	/jointset/hip_l/hip_adduction_l/speed	/jointset/hip_l/hip_rotation_l/speed	/jointset/back/lumbar_extension/speed	/jointset/patellofemoral_l/patellar_flexion_l/speed	/jointset/knee_l/knee_flexion_l/speed	/jointset/knee_l/knee_adduction_l/speed	/jointset/knee_l/knee_rotation_l/speed	/jointset/ankle_l/ankle_angle_l/speed	/jointset/subtalar_l/subtalar_angle_l/speed	/forceset/tau_hip_flexion_l	/forceset/tau_hip_adduction_l	/forceset/tau_hip_rotation_l	/forceset/tau_knee_flexion_l	/forceset/tau_ankle_angle_l	/forceset/tau_subtalar_angle_l	/forceset/tau_lumbar_extension	lambda_cid13_p0	lambda_cid13_p1	lambda_cid13_p2	lambda_cid13_p3	lambda_cid13_p4	lambda_cid13_p5	lambda_cid14_p0	/jointset/ground_pelvis/pelvis_tilt/accel	/jointset/ground_pelvis/pelvis_tx/accel	/jointset/ground_pelvis/pelvis_ty/accel	/jointset/hip_l/hip_flexion_l/accel	/jointset/hip_l/hip_adduction_l/accel	/jointset/hip_l/hip_rotation_l/accel	/jointset/back/lumbar_extension/accel	/jointset/patellofemoral_l/patellar_flexion_l/accel	/jointset/knee_l/knee_flexion_l/accel	/jointset/knee_l/knee_adduction_l/accel	/jointset/knee_l/knee_rotation_l/accel	/jointset/ankle_l/ankle_angle_l/accel	/jointset/subtalar_l/subtalar_angle_l/accel	gamma_cid13_p0	gamma_cid13_p1	gamma_cid13_p2	gamma_cid13_p3	gamma_cid13_p4	gamma_cid13_p5	gamma_cid14_p0
1.5	-0.5682179058963561	-0.05023731327046511	0.7699598874605483	1.30167850543409	-0.3465448831882506	-0.08353424093584556	-0.3556054323312633	0.6775070687888868	0.6775070687888299	-0.04177663777430559	-0.1740743429604522	0.04878695333924232	0.08979819710283828	1.084888736903699	0.4973685242510957	0.5673258372194555	-3.048890912172429	-0.01103915125662715	-0.5864114569038636	0.5860291703094201	-1.819241725895251	-1.81924172589442	-0.2228330462319744	0.01266495634484866	0.01776099919893788	0.001231181029089737	-0.2128664684173303	0.02351349732236364	0.003424353665866151	-0.07855667219785509	0.03524794865143708	0.01054086472902881	0.1735961920756336	-12.41171911259828	-3.916829151710878	2.070659841461804	-7.938842910922844	-430.4856265457294	-56.166491074633	-16.00502820382737	1.085409747793751	0.9975343699786399	-0.6829130897758898	-2.107643812491643	0.3891599385394292	-0.2532987850125221	2.175741683086133	-0.9254349117460682	-0.9254349117460664	-0.3310031188879425	0.2936426229917271	0.04376419962399422	0.4263132353949461	1.363183773704223e-07	1.633630187740744e-06	-8.582194016716525e-07	2.569235930685132e-07	5.101579161763135e-07	-3.195988402716003e-07	4.095690363694414e-07
1.51	-0.5573155270892959	-0.04521430423537166	0.7755978003008926	1.271087028670381	-0.3466368800204683	-0.08941522671346434	-0.3496383806633431	0.6592706546947878	0.6592706546947347	-0.04402091172965886	-0.1739379770941249	0.04896674718851279	0.08983075586365458	1.095403962598184	0.5071636603864164	0.5601276249920173	-3.068976213922696	-0.00736512464764155	-0.5896505603012764	0.6072913346531734	-1.827793417574779	-1.827793417574373	-0.2260657076311829	0.01467065678458012	0.0182141833397166	0.005278876507263793	-0.2055602586373781	0.02303362341527375	0.004077642428421754	-0.07647870683735071	0.03194625814264317	0.009503597502267834	0.1681342856714743	-13.28936664957887	-3.538561990328365	2.268371967638968	-7.153273771414054	-425.833138775638	-55.7724613918092	-16.72669565409211	1.007130585835184	0.9601865926045897	-0.7576051427624833	-1.894728620704273	0.3551104100040033	-0.3387624086537391	2.087979516721008	-0.7829369599642331	-0.7829369600277815	-0.3253222002124727	0.1635822485025263	0.0486591602602841	0.3930624533209044	-6.695663123528433e-08	2.612594052594082e-06	7.695345128330843e-07	5.055119982253354e-07	2.923365333563842e-07	-1.646237679707969e-07	3.107449350306986e-07
1.52	-0.5463134857041874	-0.04009540716746567	0.7811598650482552	1.24030754783628	-0.3466924193090144	-0.09532451278336544	-0.343461402210647	0.6409561435510698	0.6409561435511052	-0.04629869720882217	-0.1737796445246524	0.04915158560698167	0.08990360452911098	1.104821252515057	0.5165461308136042	0.5521562186231517	-3.086491726249355	-0.003747642521614504	-0.5920715153606187	0.6280145272649716	-1.834861135810631	-1.834861135810649	-0.2295353510214031	0.01705829698586537	0.01876991303871163	0.009289161957128807	-0.1982540488574437	0.0225537495081777	0.00473093119147766	-0.07440074147686071	0.02864456763384193	0.008466330275496455	0.1626723792672974	-14.16898412997885	-3.158442268399883	2.464066348878214	-6.35044200662325	-421.2024175207551	-55.39240184883303	-17.43739712903353	0.8658225922712116	0.9150012283520782	-0.8375519180613979	-1.59368592777028	0.3778510419476788	-0.0896691173985216	2.067947336695054	-0.6286402230107674	-0.6286402230107906	-0.3783995170902836	0.3700305753024247	0.06427331126723841	0.4188312297331159	-1.668280568718613e-07	3.101200951495741e-06	1.527775032425694e-06	6.22265648077601e-07	1.981499666170746e-07	-7.366172438235776e-08	2.640417389539393e-07
1.53	-0.5352228054364684	-0.03488486813878102	0.7866384332101495	1.209365872970816	-0.3467118774686843	-0.1012545597714658	-0.3370802675985725	0.6225784350805899	0.622578435080462	-0.04861169776376548	-0.1735958947072711	0.04934253165853875	0.09001658880077898	1.113115551418876	0.525478334067337	0.543435044985894	-3.10138112904175	-0.0001285926622440196	-0.5939081492853421	0.6480945044094898	-1.840419212482603	-1.840419212482486	-0.2330013686615512	0.0196815967487008	0.01944062749356127	0.01333040047983853	-0.190849344467999	0.02193943064910962	0.005264267351381067	-0.07249576073426481	0.02555367689970026	0.007376627025577138	0.1570776086841647	-14.99213323756134	-2.756172045571986	2.645647093651355	-5.555825280641191	-416.6945244483965	-54.99729201699555	-18.13338712433097	0.7813563940233638	0.8699460374577309	-0.9077043565758804	-1.36723813201454	0.3556128835405777	-0.2260051122774247	1.960339292173024	-0.4802449910746631	-0.4802449910542346	-0.3205555423108463	0.2070917552104721	0.07176540342891247	0.3995456055765305	-1.568331756037394e-07	3.068803574073746e-06	1.362157569924179e-06	5.989448704187766e-07	2.353253919634219e-07	-5.071352380080484e-08	2.727170047180368e-07
1.54	-0.5240551576088031	-0.0295874838448441	0.7920261287816674	1.178289169942011	-0.3466948089446434	-0.1072020420152681	-0.3305018699372864	0.6041529751230348	0.6041529751227458	-0.05095732902606796	-0.1733861894765671	0.04954084383281082	0.09017054054608124	1.120214764506156	0.5339151838640576	0.5339817005478801	-3.113497358915756	0.003557694221490614	-0.5955585665007942	0.6674671371077232	-1.84441143322595	-1.844411433225696	-0.2360614924950547	0.02224937964899446	0.0202431375818115	0.01748265668401332	-0.1834446400785908	0.02132511179001868	0.00579760351126905	-0.07059077999168448	0.02246278616554904	0.006286923775638062	0.1514828381010019	-15.81795142651963	-2.350981776247793	2.823960399988553	-4.736474471062511	-412.214113693119	-54.61842118150593	-18.81085415418058	0.6268054289632857	0.8159305369496215	-0.9839860782126084	-1.039051344092775	0.391298446820504	-0.05242577554435393	1.926478447438047	-0.3154690372856553	-0.3154690372856622	-0.2972207557613666	0.3589272027940317	0.09063243794735262	0.4410347660261185	-1.279894027174903e-07	2.939605734728496e-06	1.045883887407259e-06	5.550802079623316e-07	2.98359247677267e-07	-2.498480316554066e-08	2.899486487787247e-07
1.55	-0.5128224066464943	-0.02420841855795847	0.7973157053383617	1.147105181113812	-0.3466409341313877	-0.1131629174147201	-0.3237338362821635	0.5856953670529316	0.585695367052825	-0.05333343636234814	-0.173149567197416	0.04974753624509941	0.09036603532550959	1.126128806325943	0.5417911092045401	0.5238170947083571	-3.122804890356629	0.007214328144110992	-0.5965260845608681	0.6859787606562784	-1.84684028938215	-1.846840289382312	-0.2391440096310039	0.02510174233266466	0.02109509231495638	0.02161239176524183	-0.1761172544679215	0.02067342801635566	0.00626330849646855	-0.06848204874129561	0.01893124303979875	0.005144139818489919	0.1458437005386645	-16.80090737671078	-1.905839575260549	3.008028724292792	-3.691594195395426	-407.8524887397932	-54.16637414780473	-19.46582467973459	0.5427295971761206	0.7574988915611411	-1.050086697784848	-0.8022515573501264	0.351964721390408	-0.105093307510406	1.789379319366968	-0.1661766108553022	-0.1661766109175448	-0.3108770218235883	0.2523465842602883	0.0825152376010817	0.3979197761748614	-7.742842861905215e-08	2.698876928384716e-06	5.560280383508615e-07	4.875454173694988e-07	3.911865122927927e-07	3.947560140303744e-09	3.170387287028745e-07
1.56	-0.5015367100582566	-0.01875377894587517	0.8025001580644682	1.115842987468545	-0.346550669207625	-0.1191307036920283	-0.3167855113893962	0.56722155388007	0.5672215538801096	-0.05573979083589187	-0.1728836301347744	0.04996275585403961	0.09060262283515079	1.13080388969333	0.5490300489035919	0.5129569344302988	-3.129138322328121	0.01083571632303977	-0.5969407420717986	0.703525384636945	-1.847652453781078	-1.847652453781656	-0.2421109199394292	0.02811233634060802	0.02194857691221995	0.02570120272661633	-0.1687898688572755	0.02002174424268389	0.006729013481456755	-0.066373317490918	0.01539969991403952	0.004001355861328115	0.1402045629763086	-17.78753290282148	-1.457124282301946	3.188180478105087	-2.618935822642541	-403.5318452314492	-53.74535231356219	-20.09424530926846	0.3790137384830348	0.6885334086634745	-1.123096965919678	-0.4442314502169105	0.3842492980822007	0.05814633428431999	1.733478533860281	0.007869314168731694	0.007869314168731538	-0.2740993902565801	0.3905734676486405	0.09093841077110951	0.4328499420553141	-5.259925535499781e-08	2.626605879535911e-06	2.788453586539831e-07	4.558338874345819e-07	4.520194036119547e-07	3.922126348484012e-08	3.377101441851663e-07
